<?xml version="1.0" encoding="utf-8"?>
<!-- Generator: Adobe Illustrator 15.1.0, SVG Export Plug-In . SVG Version: 6.00 Build 0)  -->
<!DOCTYPE svg PUBLIC "-//W3C//DTD SVG 1.1//EN" "http://www.w3.org/Graphics/SVG/1.1/DTD/svg11.dtd">
<svg version="1.1" id="Warstwa_1" xmlns="http://www.w3.org/2000/svg" xmlns:xlink="http://www.w3.org/1999/xlink" x="0px" y="0px"
	 width="48px" height="48px" viewBox="16 36 48 48" enable-background="new 16 36 48 48" xml:space="preserve">
<g>
	<path fill="#CC171A" d="M40.229,54.059l-0.656,4.672l-0.981,7.813l7.664-10.308C45.556,55.662,42.278,53.156,40.229,54.059"/>
	<path fill="#CC171A" d="M55.053,41.886c-1.854-2.177-8.13-4.754-10.977-4.507c-0.258,0.627-1.979,4.853-2.308,5.662
		c3.798-0.516,9.123,2.33,10.981,4.509C53.072,46.763,54.813,42.47,55.053,41.886"/>
	<path fill="#1D1D1B" d="M52.058,78.438c-1.081-2.594-2.588-4.738-4.389-6.316c-1.585,1.291-4.025,3.215-6.095,3.215
		c-5.452,0-8.732-5.178-8.732-11.658c0-6.479,3.28-11.809,8.732-11.809c2.068,0,4.347,1.397,5.935,2.69
		c2.267-1.909,3.096-2.941,4.407-5.398c-2.839-2.55-6.433-4.264-10.342-4.264c-9.182,0-16.626,8.596-16.626,18.964
		c0,10.371,7.444,18.777,16.626,18.777C45.549,82.639,49.197,81.063,52.058,78.438"/>
</g>
</svg>
